<svg version="1.1" id="Layer_1" xmlns="http://www.w3.org/2000/svg" xmlns:xlink="http://www.w3.org/1999/xlink" x="0px" y="0px"
	 width="100%" viewBox="0 0 500 500" enable-background="new 0 0 500 500" xml:space="preserve">
<path fill="#008037" opacity="1.000000" stroke="none" 
	d="
M349.000000,501.000000 
	C232.666687,501.000000 116.833389,501.000000 1.000062,501.000000 
	C1.000041,334.333405 1.000041,167.666809 1.000021,1.000152 
	C167.666550,1.000101 334.333099,1.000101 500.999756,1.000051 
	C500.999817,167.666519 500.999817,334.333038 500.999908,500.999786 
	C450.500000,501.000000 400.000000,501.000000 349.000000,501.000000 
M229.500092,116.831856 
	C170.090042,116.831856 110.679993,116.831856 51.218170,116.831856 
	C51.218170,206.556259 51.218170,295.640961 51.218170,384.944244 
	C184.480408,384.944244 317.523865,384.944244 450.701599,384.944244 
	C450.701599,295.507629 450.701599,206.295135 450.701599,116.831856 
	C377.101990,116.831856 303.801056,116.831856 229.500092,116.831856 
z"/>
<path fill="#FEFFFE" opacity="1.000000" stroke="none" 
	d="
M230.000092,116.831856 
	C303.801056,116.831856 377.101990,116.831856 450.701599,116.831856 
	C450.701599,206.295135 450.701599,295.507629 450.701599,384.944244 
	C317.523865,384.944244 184.480408,384.944244 51.218170,384.944244 
	C51.218170,295.640961 51.218170,206.556259 51.218170,116.831856 
	C110.679993,116.831856 170.090042,116.831856 230.000092,116.831856 
M426.401428,186.035294 
	C411.568115,186.035294 396.732208,186.184814 381.903229,185.931564 
	C378.133301,185.867172 376.399780,186.939331 375.087708,190.515930 
	C363.526978,222.030090 351.767578,253.471420 340.055542,284.930054 
	C339.477203,286.483521 338.793701,287.997894 337.785034,290.434052 
	C336.846832,287.810211 336.344543,286.402954 335.840546,284.996277 
	C324.518066,253.394684 313.144928,221.811005 301.950470,190.164124 
	C300.824158,186.980057 299.449615,185.770416 295.982727,185.940414 
	C289.332214,186.266510 282.654388,186.035294 275.987915,186.035294 
	C262.343903,186.035294 248.699875,186.035294 234.748077,186.035294 
	C234.748077,189.697250 234.748077,192.985886 234.748077,196.571777 
	C240.787674,198.136627 246.828506,199.701813 253.012436,201.304077 
	C253.012436,203.221481 253.045029,204.873306 253.007629,206.523544 
	C252.282532,238.512787 251.310883,270.499512 250.995071,302.492706 
	C250.921478,309.949188 249.783096,315.316864 241.764252,317.308075 
	C239.897614,317.771576 238.320206,319.301880 236.520950,320.153809 
	C231.824860,322.377380 229.393921,325.418884 232.571915,330.693420 
	C253.928864,330.693420 275.495148,330.693420 297.245026,330.693420 
	C297.245026,327.101715 297.245026,323.820038 297.245026,320.506134 
	C290.937408,318.884369 284.881042,317.327240 278.735596,315.747192 
	C278.762970,286.877686 280.564606,258.406219 276.687195,229.942261 
	C278.166351,231.491501 279.005127,233.158569 279.634949,234.901154 
	C290.819214,265.846069 302.041931,296.777527 313.057495,327.782501 
	C314.356354,331.438385 315.896973,332.756775 319.796448,331.856354 
	C326.113251,330.397766 332.499390,329.088715 338.928589,328.327179 
	C342.490753,327.905243 343.958618,326.355988 345.147003,323.186249 
	C356.639618,292.531891 368.288788,261.936188 379.904999,231.328247 
	C380.377869,230.082336 380.968201,228.881012 381.885803,226.787277 
	C381.885803,230.219040 381.945557,232.539917 381.876526,234.856934 
	C381.207123,257.323547 380.088531,279.789032 380.064117,302.255890 
	C380.055634,310.074188 379.007751,315.674561 370.736481,317.898315 
	C369.332886,318.275696 368.155670,319.424744 366.781372,319.994080 
	C361.645233,322.121796 359.507538,325.373444 362.527252,330.585266 
	C387.894867,330.585266 413.281403,330.585266 438.557373,330.585266 
	C438.557373,326.906952 438.557373,323.649994 438.557373,320.414795 
	C433.219635,319.091248 428.259583,317.630402 423.203217,316.684143 
	C419.480652,315.987518 418.158691,314.446106 418.123016,310.460114 
	C417.817200,276.296936 417.309784,242.135040 416.677063,207.976181 
	C416.613678,204.553864 417.656921,202.941116 420.772736,201.737350 
	C424.160767,200.428375 427.187469,198.210510 430.529724,196.750702 
	C435.509064,194.575882 436.523285,191.214508 433.999268,186.035294 
	C431.959595,186.035294 429.661377,186.035294 426.401428,186.035294 
M159.059479,185.827118 
	C159.059479,188.816284 159.059479,191.805466 159.059479,195.152115 
	C165.154526,196.184006 171.149628,197.198959 176.833405,198.161224 
	C176.833405,226.128632 177.116730,253.606644 176.624573,281.070740 
	C176.508545,287.545929 174.186691,294.111053 172.081314,300.366119 
	C171.037094,303.468475 168.736160,306.781433 166.054230,308.594604 
	C150.371140,319.197388 126.722870,311.733337 120.209763,293.954163 
	C118.079521,288.139130 117.009720,281.640869 116.905563,275.430756 
	C116.508751,251.771683 116.643776,228.102264 116.811783,204.438354 
	C116.823257,202.821732 118.380905,200.663544 119.841492,199.715652 
	C123.872833,197.099396 128.178726,194.881165 132.483688,192.719940 
	C135.610977,191.149933 135.250824,188.733124 134.817154,185.990814 
	C134.310440,182.786636 132.021545,183.302231 129.901154,183.302170 
	C107.735435,183.301620 85.569710,183.296387 63.404015,183.316147 
	C62.117401,183.317291 60.830967,183.523056 59.309708,183.653763 
	C59.309708,187.547684 59.309708,191.167587 59.309708,195.162308 
	C64.754738,196.090088 70.280090,197.031570 76.132545,198.028778 
	C76.132545,200.247757 76.112900,202.223206 76.135529,204.198166 
	C76.414101,228.516464 75.852386,252.882111 77.210907,277.140137 
	C78.683060,303.427216 95.992165,324.443390 120.001389,331.915527 
	C131.480820,335.488190 143.247971,336.041199 155.114182,334.881958 
	C177.888474,332.657135 195.219315,318.609222 201.388306,296.817871 
	C203.320847,289.991364 204.672928,282.785278 204.848373,275.717133 
	C205.369308,254.730164 205.599228,233.714050 205.042191,212.733231 
	C204.823853,204.509567 206.097137,198.671722 214.792923,196.383072 
	C216.189499,196.015503 217.332977,194.775162 218.706146,194.213974 
	C223.895020,192.093369 225.384277,188.686386 222.305771,183.321152 
	C202.152603,183.321152 181.673904,183.305283 161.195587,183.388367 
	C160.492310,183.391205 159.793060,184.385376 159.059479,185.827118 
z"/>
<path fill="#028138" opacity="1.000000" stroke="none" 
	d="
M426.882263,186.035294 
	C429.661377,186.035294 431.959595,186.035294 433.999268,186.035294 
	C436.523285,191.214508 435.509064,194.575882 430.529724,196.750702 
	C427.187469,198.210510 424.160767,200.428375 420.772736,201.737350 
	C417.656921,202.941116 416.613678,204.553864 416.677063,207.976181 
	C417.309784,242.135040 417.817200,276.296936 418.123016,310.460114 
	C418.158691,314.446106 419.480652,315.987518 423.203217,316.684143 
	C428.259583,317.630402 433.219635,319.091248 438.557373,320.414795 
	C438.557373,323.649994 438.557373,326.906952 438.557373,330.585266 
	C413.281403,330.585266 387.894867,330.585266 362.527252,330.585266 
	C359.507538,325.373444 361.645233,322.121796 366.781372,319.994080 
	C368.155670,319.424744 369.332886,318.275696 370.736481,317.898315 
	C379.007751,315.674561 380.055634,310.074188 380.064117,302.255890 
	C380.088531,279.789032 381.207123,257.323547 381.876526,234.856934 
	C381.945557,232.539917 381.885803,230.219040 381.885803,226.787277 
	C380.968201,228.881012 380.377869,230.082336 379.904999,231.328247 
	C368.288788,261.936188 356.639618,292.531891 345.147003,323.186249 
	C343.958618,326.355988 342.490753,327.905243 338.928589,328.327179 
	C332.499390,329.088715 326.113251,330.397766 319.796448,331.856354 
	C315.896973,332.756775 314.356354,331.438385 313.057495,327.782501 
	C302.041931,296.777527 290.819214,265.846069 279.634949,234.901154 
	C279.005127,233.158569 278.166351,231.491501 276.687195,229.942261 
	C280.564606,258.406219 278.762970,286.877686 278.735596,315.747192 
	C284.881042,317.327240 290.937408,318.884369 297.245026,320.506134 
	C297.245026,323.820038 297.245026,327.101715 297.245026,330.693420 
	C275.495148,330.693420 253.928864,330.693420 232.571915,330.693420 
	C229.393921,325.418884 231.824860,322.377380 236.520950,320.153809 
	C238.320206,319.301880 239.897614,317.771576 241.764252,317.308075 
	C249.783096,315.316864 250.921478,309.949188 250.995071,302.492706 
	C251.310883,270.499512 252.282532,238.512787 253.007629,206.523544 
	C253.045029,204.873306 253.012436,203.221481 253.012436,201.304077 
	C246.828506,199.701813 240.787674,198.136627 234.748077,196.571777 
	C234.748077,192.985886 234.748077,189.697250 234.748077,186.035294 
	C248.699875,186.035294 262.343903,186.035294 275.987915,186.035294 
	C282.654388,186.035294 289.332214,186.266510 295.982727,185.940414 
	C299.449615,185.770416 300.824158,186.980057 301.950470,190.164124 
	C313.144928,221.811005 324.518066,253.394684 335.840546,284.996277 
	C336.344543,286.402954 336.846832,287.810211 337.785034,290.434052 
	C338.793701,287.997894 339.477203,286.483521 340.055542,284.930054 
	C351.767578,253.471420 363.526978,222.030090 375.087708,190.515930 
	C376.399780,186.939331 378.133301,185.867172 381.903229,185.931564 
	C396.732208,186.184814 411.568115,186.035294 426.882263,186.035294 
z"/>
<path fill="#04823A" opacity="1.000000" stroke="none" 
	d="
M159.075699,185.372299 
	C159.793060,184.385376 160.492310,183.391205 161.195587,183.388367 
	C181.673904,183.305283 202.152603,183.321152 222.305771,183.321152 
	C225.384277,188.686386 223.895020,192.093369 218.706146,194.213974 
	C217.332977,194.775162 216.189499,196.015503 214.792923,196.383072 
	C206.097137,198.671722 204.823853,204.509567 205.042191,212.733231 
	C205.599228,233.714050 205.369308,254.730164 204.848373,275.717133 
	C204.672928,282.785278 203.320847,289.991364 201.388306,296.817871 
	C195.219315,318.609222 177.888474,332.657135 155.114182,334.881958 
	C143.247971,336.041199 131.480820,335.488190 120.001389,331.915527 
	C95.992165,324.443390 78.683060,303.427216 77.210907,277.140137 
	C75.852386,252.882111 76.414101,228.516464 76.135529,204.198166 
	C76.112900,202.223206 76.132545,200.247757 76.132545,198.028778 
	C70.280090,197.031570 64.754738,196.090088 59.309708,195.162308 
	C59.309708,191.167587 59.309708,187.547684 59.309708,183.653763 
	C60.830967,183.523056 62.117401,183.317291 63.404015,183.316147 
	C85.569710,183.296387 107.735435,183.301620 129.901154,183.302170 
	C132.021545,183.302231 134.310440,182.786636 134.817154,185.990814 
	C135.250824,188.733124 135.610977,191.149933 132.483688,192.719940 
	C128.178726,194.881165 123.872833,197.099396 119.841492,199.715652 
	C118.380905,200.663544 116.823257,202.821732 116.811783,204.438354 
	C116.643776,228.102264 116.508751,251.771683 116.905563,275.430756 
	C117.009720,281.640869 118.079521,288.139130 120.209763,293.954163 
	C126.722870,311.733337 150.371140,319.197388 166.054230,308.594604 
	C168.736160,306.781433 171.037094,303.468475 172.081314,300.366119 
	C174.186691,294.111053 176.508545,287.545929 176.624573,281.070740 
	C177.116730,253.606644 176.833405,226.128632 176.833405,198.161224 
	C171.149628,197.198959 165.154526,196.184006 159.059479,195.152115 
	C159.059479,191.805466 159.059479,188.816284 159.075699,185.372299 
z"/>
</svg>